<svg width="128" height="128" fill="none" xmlns="http://www.w3.org/2000/svg"><path fill="#fff" d="M0 0h128v128H0z"/><path fill="#000" d="M47.192 35h45.769v57.212H47.192z"/><path d="M82.54 48.79H71.57v30.422h-4.476V48.79H56.148v-3.703H82.54v3.703z" fill="#fff"/><path d="M106.781 45.149c2.25 0 4.031.542 5.344 1.625 1.323 1.083 1.984 2.594 1.984 4.531 0 1.042-.26 1.985-.781 2.828-.521.844-1.255 1.521-2.203 2.032 1.281.437 2.26 1.135 2.937 2.093.688.959 1.032 2.12 1.032 3.485 0 2.135-.62 3.802-1.86 5-1.239 1.187-2.942 1.781-5.109 1.781-1.646 0-3.109-.396-4.391-1.188v7.22h-4.515v-22.5c0-1.303.328-2.48.984-3.532.656-1.063 1.568-1.89 2.735-2.484 1.166-.594 2.447-.891 3.843-.891zm2.813 6.5c0-.854-.261-1.542-.782-2.063-.51-.52-1.187-.78-2.031-.78-.885 0-1.614.296-2.187.89-.573.583-.86 1.39-.86 2.422v11.86c.855.603 1.98.905 3.375.905 1.063 0 1.907-.296 2.532-.89.625-.604.937-1.375.937-2.313 0-1.125-.286-2-.859-2.625-.563-.635-1.396-.953-2.5-.953h-1.516v-3.297h1.219c1.781-.062 2.672-1.114 2.672-3.156zM40.836 67.844c-.266 3.672-1.625 6.563-4.078 8.672-2.438 2.11-5.656 3.164-9.656 3.164-4.375 0-7.82-1.469-10.336-4.406-2.5-2.953-3.75-7-3.75-12.14v-2.087c0-3.28.578-6.171 1.734-8.671 1.156-2.5 2.805-4.414 4.945-5.743 2.157-1.343 4.657-2.015 7.5-2.015 3.938 0 7.11 1.054 9.516 3.164 2.406 2.11 3.797 5.07 4.172 8.883h-7.031c-.172-2.203-.79-3.797-1.852-4.782-1.047-1-2.648-1.5-4.805-1.5-2.343 0-4.101.844-5.273 2.532-1.156 1.672-1.75 4.273-1.781 7.804v2.578c0 3.688.554 6.383 1.664 8.086 1.125 1.704 2.89 2.555 5.297 2.555 2.171 0 3.789-.492 4.851-1.477 1.078-1 1.695-2.538 1.852-4.617h7.03z" fill="#000"/></svg>