<svg width="163" height="26" fill="none" xmlns="http://www.w3.org/2000/svg"><path d="M13.675 15.79c-.122 1.683-.745 3.008-1.87 3.975-1.117.966-2.592 1.45-4.425 1.45-2.005 0-3.584-.673-4.737-2.02-1.146-1.353-1.72-3.208-1.72-5.564v-.956c0-1.504.266-2.829.796-3.975s1.285-2.023 2.266-2.632c.989-.616 2.134-.923 3.438-.923 1.805 0 3.258.483 4.361 1.45 1.103.967 1.74 2.324 1.912 4.071h-3.222c-.08-1.01-.362-1.74-.849-2.191-.48-.459-1.214-.688-2.202-.688-1.074 0-1.88.387-2.417 1.16-.53.767-.802 1.959-.817 3.577v1.182c0 1.69.255 2.925.763 3.706.516.78 1.325 1.171 2.428 1.171.995 0 1.737-.226 2.224-.677.494-.458.777-1.163.848-2.116h3.223zm14.964-2.256c0 1.54-.273 2.89-.817 4.05-.544 1.16-1.325 2.055-2.341 2.686-1.01.63-2.17.945-3.481.945-1.296 0-2.453-.312-3.47-.935-1.017-.623-1.804-1.51-2.363-2.664-.559-1.16-.842-2.492-.849-3.996v-.773c0-1.54.276-2.894.827-4.06.56-1.175 1.343-2.074 2.353-2.697 1.017-.63 2.177-.945 3.48-.945 1.304 0 2.46.315 3.47.945 1.017.623 1.801 1.522 2.353 2.696.558 1.167.838 2.517.838 4.05v.698zm-3.266-.709c0-1.64-.294-2.886-.88-3.738-.588-.852-1.426-1.278-2.514-1.278-1.082 0-1.916.422-2.503 1.267-.588.838-.885 2.07-.892 3.695v.763c0 1.597.294 2.836.88 3.717.588.88 1.433 1.321 2.536 1.321 1.081 0 1.912-.422 2.492-1.267.58-.852.874-2.091.881-3.717v-.763zM43.699 21h-3.222l-6.274-10.291V21H30.98V5.36h3.223l6.284 10.312V5.359H43.7V21zM49 1h75v25H49z" fill="#000"/><path d="M64.622 7.057h-5.027V21h-2.052V7.057h-5.017V5.359h12.096v1.698zm8.057 7.616h-3.674V21h-2.073V5.36h5.177c1.762 0 3.116.4 4.06 1.202.953.803 1.43 1.97 1.43 3.503 0 .973-.265 1.822-.795 2.545-.523.724-1.254 1.264-2.192 1.622l3.674 6.64V21h-2.213l-3.394-6.327zm-3.674-1.687h3.169c1.024 0 1.837-.265 2.438-.795.609-.53.913-1.239.913-2.127 0-.966-.29-1.708-.87-2.223-.573-.516-1.403-.777-2.492-.784h-3.158v5.93zm20.13 3.932h-6.552L81.111 21h-2.127l5.973-15.64h1.805L92.745 21H90.63l-1.493-4.082zm-5.929-1.697h5.317L85.86 7.905l-2.653 7.316zm16.253-1.193c-1.769-.508-3.058-1.131-3.867-1.869-.802-.745-1.203-1.661-1.203-2.75 0-1.232.49-2.249 1.471-3.05.989-.81 2.27-1.214 3.846-1.214 1.074 0 2.03.207 2.868.623.845.415 1.497.988 1.955 1.718.466.73.699 1.53.699 2.396h-2.074c0-.945-.3-1.687-.902-2.224-.602-.544-1.45-.816-2.546-.816-1.017 0-1.812.225-2.385.677-.566.444-.848 1.063-.848 1.858 0 .637.268 1.178.805 1.622.545.437 1.465.838 2.761 1.203 1.303.365 2.32.77 3.051 1.214.737.437 1.282.949 1.633 1.536.358.587.537 1.278.537 2.073 0 1.268-.494 2.285-1.483 3.051-.988.76-2.309 1.139-3.963 1.139a7.407 7.407 0 01-3.008-.613c-.931-.415-1.651-.98-2.16-1.697a4.158 4.158 0 01-.752-2.438h2.074c0 .945.347 1.694 1.042 2.245.702.544 1.636.816 2.803.816 1.089 0 1.923-.222 2.503-.666.58-.444.871-1.049.871-1.815s-.269-1.357-.806-1.773c-.537-.422-1.511-.837-2.922-1.246zm19.261-6.971h-5.028V21h-2.051V7.057h-5.017V5.359h12.096v1.698z" fill="#fff"/><path d="M134.891 7.469c1.125 0 2.015.27 2.671.812.662.542.993 1.297.993 2.266 0 .52-.131.992-.391 1.414-.26.422-.628.76-1.102 1.016.641.218 1.131.567 1.469 1.046.344.48.516 1.06.516 1.743 0 1.067-.31 1.9-.93 2.5-.62.593-1.471.89-2.555.89-.822 0-1.554-.198-2.195-.593v3.609h-2.258v-11.25c0-.651.164-1.24.493-1.766a3.355 3.355 0 011.367-1.242 4.175 4.175 0 011.922-.445zm1.406 3.25c0-.427-.13-.771-.391-1.031-.255-.26-.594-.391-1.015-.391-.443 0-.808.148-1.094.445-.287.292-.43.695-.43 1.211v5.93c.427.302.99.453 1.688.453.531 0 .953-.148 1.265-.445.313-.302.469-.688.469-1.157 0-.562-.143-1-.43-1.312-.281-.318-.698-.477-1.25-.477h-.757v-1.648h.609c.891-.031 1.336-.557 1.336-1.578zm8.086 8.437c-1.24 0-2.25-.38-3.031-1.14-.776-.76-1.164-1.774-1.164-3.04v-.218c0-.85.164-1.607.492-2.274.328-.671.791-1.187 1.39-1.546.604-.365 1.292-.547 2.063-.547 1.156 0 2.065.364 2.726 1.093.667.73 1 1.763 1 3.102v.922h-5.382c.072.552.291.995.656 1.328.37.333.836.5 1.398.5.87 0 1.55-.315 2.039-.945l1.11 1.242a3.425 3.425 0 01-1.375 1.125 4.55 4.55 0 01-1.922.398zm-.258-6.937c-.448 0-.813.15-1.094.453-.276.302-.453.734-.531 1.297h3.141v-.18c-.011-.5-.146-.885-.407-1.156-.26-.276-.63-.414-1.109-.414zm7.727-3.75v2.078h1.445v1.656h-1.445v4.219c0 .312.059.536.179.672.12.135.349.203.688.203.25 0 .471-.018.664-.055v1.711a4.652 4.652 0 01-1.367.203c-1.584 0-2.391-.8-2.422-2.398v-4.555h-1.235v-1.656h1.235V8.469h2.258zM159.453 19a2.487 2.487 0 01-.226-.758c-.547.61-1.258.914-2.133.914-.828 0-1.516-.24-2.063-.718a2.318 2.318 0 01-.812-1.813c0-.896.33-1.583.992-2.063.667-.479 1.628-.72 2.883-.726h1.039v-.484c0-.391-.102-.704-.305-.938-.198-.234-.513-.351-.945-.351-.38 0-.68.09-.899.273-.213.182-.32.432-.32.75h-2.258c0-.49.151-.943.453-1.36.302-.416.73-.742 1.282-.976.552-.24 1.171-.36 1.859-.36 1.042 0 1.867.264 2.477.79.614.52.921 1.255.921 2.203v3.664c.006.802.118 1.409.336 1.82V19h-2.281zm-1.867-1.57c.333 0 .641-.073.922-.22a1.49 1.49 0 00.625-.6v-1.454h-.844c-1.13 0-1.732.39-1.805 1.172l-.007.133c0 .281.099.513.296.695.198.183.469.274.813.274z" fill="#000"/></svg>